<svg version="1" xmlns="http://www.w3.org/2000/svg" width="682.667" height="682.667" viewBox="0 0 512.000000 512.000000"><path d="M235.4 18.9c-77.9 73-135.9 156.3-159 228.1-8.4 26.3-11.8 47.3-11.8 73 .1 25.9 3.7 46 12.7 69.6 14.9 39 43.8 73 80.9 95.2 29.5 17.8 61.9 26.5 97.8 26.5 24.3 0 46.3-3.8 67-11.6 51.4-19.5 92.6-60.2 111.7-110.1 9.1-23.9 12.7-43.8 12.6-70.1 0-40.7-9.7-76.9-32.9-123.5-28.7-57.4-78.6-121.6-137.8-177.1C266.1 9.1 256.8 1 256 1c-.8 0-10.1 8.1-20.6 17.9zm127.1 215.9c19.1 42.2 25.5 79.3 19 110.5C369.2 405 316.3 448.2 256 447.9c-5.8 0-12.3-.3-14.4-.7l-3.9-.7 9.4-6.2C284 416.1 314.3 380.4 333 339c9.1-20.3 16.5-47.5 19-70.5 1.2-10.9 1.5-39.5.5-48.4l-.6-5.6 2.6 4.3c1.5 2.4 5.1 9.6 8 16z"/></svg>